<svg width="302" height="231" viewBox="0 0 302 231" fill="none" xmlns="http://www.w3.org/2000/svg">
<path d="M6.54116 223.268C9.85772 228.206 14.5157 231.007 19.3902 231L88.3303 230.87C93.7709 230.86 99.1334 229.099 103.984 225.73L257.644 119.141C271.766 109.345 284.425 95.3615 293.038 77.0468C302.708 56.487 303.759 41.6085 299.941 31.0976C296.133 20.5795 286.875 12.8551 269.178 11.2813C253.414 9.88085 237.734 15.555 223.612 25.344L171.588 61.432L56.0889 2.19257C54.7002 0.913776 53.0868 0.165242 51.4156 0.0243653C49.7444 -0.116511 48.0759 0.355383 46.5828 1.39126L11.8593 25.4812C6.22429 29.3867 4.86175 39.6666 9.12892 46.0771L91.631 116.896L37.1243 154.709L-1.08482 128.381C-2.40122 127.474 -3.85524 127.003 -5.32948 127.005C-6.80373 127.008 -8.25688 127.484 -9.57163 128.396L-30.7649 143.101C-36.2784 146.927 -37.7307 156.904 -33.7065 163.372L6.54116 223.268Z" fill="#41A4FF"/>
</svg>
